<?xml version="1.0" encoding="iso-8859-1"?>
<!-- Generator: Adobe Illustrator 15.1.0, SVG Export Plug-In . SVG Version: 6.00 Build 0)  -->
<!DOCTYPE svg PUBLIC "-//W3C//DTD SVG 1.1//EN" "http://www.w3.org/Graphics/SVG/1.1/DTD/svg11.dtd">
<svg version="1.1" id="Layer_1" xmlns="http://www.w3.org/2000/svg" xmlns:xlink="http://www.w3.org/1999/xlink" x="0px" y="0px"
	 width="216px" height="216px" viewBox="0 0 216 216" style="enable-background:new 0 0 216 216;" xml:space="preserve">
<g>
	<path style="fill:#6F2A81;" d="M88.588,215.752l-5.933-33.158l-0.41-0.143c-2.8-0.974-5.501-2.078-8.028-3.282l-0.389-0.185
		L46.195,198.23l-27.997-27.997l19.118-27.282l-0.194-0.394c-1.333-2.706-2.519-5.5-3.522-8.304l-0.145-0.405l-32.715-5.853V88.404
		l32.208-5.666l0.14-0.418c1.056-3.15,2.274-6.173,3.619-8.984l0.186-0.389L18.263,46.196l27.997-27.997l26.372,18.48l0.395-0.196
		c3.006-1.495,6.166-2.817,9.392-3.932l0.411-0.142l5.666-31.668h39.594l5.565,31.635l0.414,0.142
		c3.221,1.106,6.366,2.416,9.348,3.891l0.394,0.195l26.36-18.472l27.996,27.997L179.61,72.77l0.188,0.39
		c1.357,2.816,2.592,5.871,3.671,9.078l0.141,0.417l32.143,5.656v39.593l-32.585,5.831l-0.144,0.405
		c-1.017,2.855-2.212,5.683-3.553,8.402l-0.194,0.394l19.084,27.233l-27.997,27.997l-27.567-19.199l-0.389,0.186
		c-2.504,1.195-5.188,2.294-7.978,3.269l-0.41,0.143l-5.838,33.188H88.588z M108.293,59.694c-26.377,0-47.836,21.459-47.836,47.835
		c0,26.377,21.459,47.836,47.836,47.836c26.376,0,47.835-21.459,47.835-47.836C156.128,81.153,134.669,59.694,108.293,59.694z"/>
	<path d="M127.466,1.482l5.382,30.591L133,32.935l0.827,0.284c3.19,1.096,6.306,2.393,9.26,3.854l0.788,0.39l0.72-0.504
		l25.49-17.863l13.557,13.558l13.56,13.56l-17.953,25.776l-0.495,0.71l0.375,0.78c1.344,2.789,2.567,5.814,3.637,8.993l0.281,0.835
		l0.867,0.152l31.097,5.472v19.174v19.176l-31.551,5.645l-0.847,0.151l-0.289,0.811c-1.008,2.829-2.192,5.629-3.52,8.324
		l-0.388,0.787l0.503,0.719l18.476,26.364l-13.559,13.557l-0.434,0.436l0,0l-13.125,13.125l-26.705-18.598l-0.708-0.493
		l-0.778,0.372c-2.479,1.183-5.139,2.272-7.902,3.238l-0.821,0.287l-0.15,0.856l-5.656,32.147h-19.174H89.208l-5.747-32.121
		l-0.153-0.854l-0.82-0.285c-2.775-0.965-5.451-2.058-7.953-3.25l-0.778-0.371l-0.707,0.492l-26.771,18.645L32.72,183.707
		l-13.557-13.557l18.51-26.412l0.503-0.719l-0.388-0.787c-1.321-2.681-2.495-5.448-3.488-8.226l-0.29-0.809l-0.845-0.151
		l-31.682-5.668v-19.178V89.027l31.161-5.482l0.869-0.152l0.28-0.836c1.046-3.122,2.252-6.116,3.584-8.899l0.373-0.779l-0.493-0.708
		l-18.03-25.888l13.561-13.56l13.558-13.558l25.501,17.871l0.722,0.505l0.789-0.392c2.978-1.481,6.107-2.791,9.304-3.895
		l0.822-0.284l0.153-0.856l5.48-30.629h19.178H127.466 M108.293,156.107c26.785,0,48.577-21.792,48.577-48.578
		c0-26.785-21.792-48.577-48.577-48.577c-26.786,0-48.577,21.792-48.577,48.577C59.716,134.316,81.507,156.107,108.293,156.107
		 M128.711,0h-20.418h0H87.875l-5.699,31.851c-3.26,1.126-6.425,2.45-9.48,3.969L46.175,17.235L31.738,31.673h0L17.3,46.11
		l18.739,26.906c-1.4,2.926-2.61,5.958-3.652,9.068L0,87.782v20.417v0.001v20.417l32.903,5.887c1.028,2.875,2.218,5.669,3.555,8.382
		l-19.224,27.432l14.437,14.437l0.001,0.001l14.437,14.437l27.789-19.354c2.624,1.25,5.332,2.349,8.104,3.313l5.965,33.342h20.418h0
		h20.418l5.871-33.373c2.754-0.962,5.445-2.056,8.052-3.3l27.723,19.307l14.437-14.437v-0.001l14.439-14.437l-19.19-27.383
		c1.352-2.743,2.55-5.573,3.586-8.481l32.772-5.864v-20.417v-0.001V87.689l-32.322-5.688c-1.058-3.143-2.283-6.209-3.706-9.164
		l18.662-26.794L184.69,31.606v-0.001l-14.437-14.437l-26.509,18.577c-3.041-1.504-6.192-2.813-9.436-3.928L128.711,0L128.711,0z
		 M108.293,154.625c-26.01,0-47.095-21.085-47.095-47.095s21.085-47.094,47.095-47.094c26.009,0,47.094,21.084,47.094,47.094
		S134.302,154.625,108.293,154.625L108.293,154.625z"/>
</g>
<path style="fill:#006A51;" d="M139.871,76.954l1.855,2.65c-7.566,5.693-15.98,14.461-25.243,26.304
	c-9.264,11.845-16.334,22.911-21.213,33.199l-3.924,2.65c-3.252,2.263-5.462,3.942-6.628,5.039c-0.46-1.662-1.468-4.384-3.023-8.167
	l-1.484-3.447c-2.122-4.949-4.092-8.609-5.914-10.978c-1.821-2.369-3.862-3.942-6.125-4.72c3.818-4.029,7.318-6.047,10.5-6.047
	c2.723,0,5.746,3.696,9.068,11.085l1.645,3.711c5.975-10.076,13.646-19.868,23.016-29.379
	C121.768,89.346,130.925,82.045,139.871,76.954z"/>
</svg>
